<svg version="1.0" xmlns="http://www.w3.org/2000/svg"
 width= "40" height="40" viewBox="0 0 499.000000 499.000000"
 preserveAspectRatio="xMidYMid meet">

<g transform="translate(0.000000,499.000000) scale(0.100000,-0.100000)"
fill="#000000" stroke="none">
<path d="M1390 3791 c0 -5 53 -101 118 -213 65 -112 129 -222 142 -245 16 -28
32 -44 49 -47 14 -3 368 -4 786 -3 l760 2 1 -55 c1 -54 -19 -322 -31 -427 l-6
-53 -362 -1 -362 0 90 -26 c50 -13 93 -28 97 -31 6 -6 -16 -316 -41 -577 -5
-55 -15 -166 -22 -248 -7 -89 -17 -151 -24 -157 -8 -7 -107 -9 -266 -8 l-254
3 2 65 c1 59 15 223 57 690 9 91 18 193 21 228 l6 62 -258 -2 -258 -3 -7 -80
c-5 -44 -24 -267 -43 -495 -35 -414 -57 -663 -75 -859 -6 -56 -7 -107 -4 -112
7 -12 1011 -11 1174 1 210 15 321 65 509 227 186 160 269 280 317 457 17 64
30 176 54 476 11 135 27 322 36 415 27 281 11 404 -70 570 -102 207 -294 364
-521 427 -79 22 -91 22 -847 26 -514 2 -768 0 -768 -7z"/>
</g>
</svg>
